# xmcd
#
# Track frame offsets: 
#        182
#        3780
#        21230
#        44327
#        68665
#        88740
#        104705
#        132822
#        151065
#        168490
#        182280
#        193027
#        202865
#
# Disc length: 3691 seconds
#
# Revision: 6
# Processed by: cddbd v1.5PL3 Copyright (c) Steve Scherf et al.
# Submitted via: ExactAudioCopy v0.95a4
#
DISCID=9d0e690d
DTITLE=Limp Bizkit - Three Dollar Bill, Yall$
DYEAR=1997
DGENRE=Hard Rock
TTITLE0=Intro
TTITLE1=Pollution
TTITLE2=Counterfeit
TTITLE3=Stuck
TTITLE4=Nobody Love's Me
TTITLE5=Sour
TTITLE6=Stalemate
TTITLE7=Clunk
TTITLE8=Faith
TTITLE9=StinkFinger
TTITLE10=Indigo Flow
TTITLE11=Leech
TTITLE12=Everything
EXTD=\nYEAR: 1997  ID3G:  79\n
EXTT0=
EXTT1=
EXTT2=
EXTT3=
EXTT4=
EXTT5=
EXTT6=
EXTT7=
EXTT8=
EXTT9=
EXTT10=
EXTT11=
EXTT12=
PLAYORDER=
